<?xml version="1.0" encoding="UTF-8"?>
<svg width="83px" height="20px" viewBox="0 0 83 20" version="1.1" xmlns="http://www.w3.org/2000/svg" xmlns:xlink="http://www.w3.org/1999/xlink">
    <!-- Generator: Sketch 45.2 (43514) - http://www.bohemiancoding.com/sketch -->
    <title>AE_LOGO_RU</title>
    <desc>Created with Sketch.</desc>
    <defs/>
    <g id="Symbols" stroke="none" stroke-width="1" fill="none" fill-rule="evenodd">
        <g id="Navigation" transform="translate(-121.000000, -8.000000)">
            <g id="Group-4" transform="translate(-250.000000, 0.000000)">
                <g id="AE_LOGO_RU" transform="translate(371.000000, 8.000000)">
                    <path d="M56.9659544,9.87876923 L56.9799533,9.81936652 C57.0636217,9.47228959 57.2039371,9.14345701 57.3966673,8.84351131 C57.5858164,8.54899548 57.8207606,8.28857919 58.0946633,8.07040724 C58.3707363,7.85049774 58.678931,7.67880543 59.0106744,7.56076018 C59.3534868,7.43902262 59.7137708,7.37668778 60.0818682,7.375819 C60.7615243,7.37744796 61.4115548,7.62885068 61.9121542,8.08365611 C62.409932,8.5360724 62.722142,9.1559457 62.7909432,9.82566516 L62.7962606,9.87876923 L56.9659544,9.87876923 Z M61.8023327,6.12347511 C61.2772079,5.90106787 60.7187677,5.79312217 60.1431815,5.78519457 L60.1196329,5.78519457 C59.4783925,5.79312217 58.8560345,5.91355656 58.2704645,6.16072398 C57.7011724,6.40083258 57.1897211,6.74497738 56.7503266,7.18284163 C56.310932,7.62070588 55.9651897,8.13122172 55.7228661,8.6998371 C55.4721866,9.288 55.3433742,9.91384615 55.3402272,10.5593484 L55.3402272,10.5641267 C55.3402272,10.5643439 55.3389249,10.5643439 55.3389249,10.5646697 C55.3389249,10.5670588 55.3376227,10.5691222 55.3376227,10.5711855 L55.3376227,10.5717285 L55.339142,10.5831312 C55.342072,11.2378643 55.4727292,11.872724 55.7252535,12.4701176 C55.9696389,13.0472036 56.3187454,13.5664072 56.7621552,14.0127421 C57.2055649,14.4590769 57.7220081,14.8108235 58.2973773,15.0588597 C58.8921714,15.3152579 59.5250558,15.4489412 60.1785588,15.4561086 L60.1975497,15.4563258 C60.1993945,15.4563258 60.2012394,15.4563258 60.2027586,15.4563258 L60.2143702,15.4552398 L60.2231602,15.4544796 L60.2241369,15.4544796 L60.232927,15.4552398 C60.9523012,15.4473122 61.6419412,15.2857195 62.2829645,14.974371 C62.8878509,14.680181 63.4169909,14.270009 63.8558428,13.7539548 L62.6511704,12.7873303 C62.3531765,13.1338643 61.9973418,13.4079638 61.5938671,13.6062624 C61.1587049,13.8201991 60.6913124,13.9337919 60.205146,13.9337919 L60.2041694,13.9337919 C59.8285842,13.9337919 59.4607039,13.8664615 59.1110548,13.7417919 C58.7726917,13.6210317 58.4573347,13.4481448 58.1738824,13.2257376 C57.8930345,13.0057195 57.6504939,12.744 57.4523377,12.4474208 C57.2514686,12.1460633 57.1012779,11.8157104 57.0065406,11.4665701 L56.9904797,11.4071674 L64.4105933,11.4071674 L64.4198174,10.0797828 C64.4198174,9.49976471 64.3066318,8.93777376 64.0834077,8.40847059 C63.8674544,7.89697738 63.558717,7.43761086 63.1652262,7.04361991 C62.7717353,6.64930317 62.3130243,6.3398009 61.8023327,6.12347511 L61.8023327,6.12347511 Z" id="Fill-1" fill="#DC3E2A"/>
                    <path d="M47.3553793,10.7590588 C47.3553793,12.5184434 45.9303043,13.9446516 44.1724006,13.9446516 C42.414497,13.9446516 40.9896389,12.5184434 40.9896389,10.7590588 C40.9896389,10.7172489 40.9903986,10.6755475 40.9920264,10.6340633 C40.9903986,10.5926878 40.9896389,10.5508778 40.9896389,10.5091765 C40.9896389,8.74968326 42.414497,7.32358371 44.1724006,7.32358371 C45.9303043,7.32358371 47.3553793,8.74968326 47.3553793,10.5091765 C47.3553793,10.5508778 47.3546197,10.5926878 47.3531004,10.6340633 C47.3546197,10.6755475 47.3553793,10.7172489 47.3553793,10.7590588 M44.1702302,5.7838914 C41.5147637,5.7838914 39.3546876,7.92206335 39.3303793,10.5739005 L39.3303793,19.9703891 L40.9570832,19.9703891 L40.9570832,13.9577919 C41.7702181,14.8145158 42.8870984,15.3755294 44.1362637,15.4616471 C44.1470071,15.4616471 44.1586187,15.4618643 44.1692535,15.4618643 C46.8396957,15.4618643 49.0054148,13.2962172 49.0054148,10.6235294 C49.0054148,8.0799638 47.0442546,5.99565611 44.5529777,5.80050679 C44.5376765,5.79920362 44.4610619,5.79333937 44.4534655,5.79279638 C44.3598134,5.78725792 44.2652931,5.7838914 44.1702302,5.7838914" id="Fill-2" fill="#DC3E2A"/>
                    <polyline id="Fill-3" fill="#DC3E2A" points="22.5331156 13.5225339 22.5331156 9.57046154 27.7548458 9.57046154 27.7548458 7.99113122 22.5331156 7.99113122 22.5331156 4.12289593 28.4104108 4.12289593 28.4104108 2.4598371 20.8712515 2.4598371 20.8712515 15.18581 28.867711 15.18581 28.867711 13.5225339 22.5331156 13.5225339"/>
                    <polyline id="Fill-4" fill="#DC3E2A" points="38.6125243 6.04637104 36.6867414 6.04637104 34.1073469 9.39572851 31.5278438 6.04637104 29.6020609 6.04637104 33.1215578 10.6161448 29.6020609 15.1859186 31.5278438 15.1859186 34.1073469 11.8365611 36.6867414 15.1859186 38.6125243 15.1859186 35.0930274 10.6161448 38.6125243 6.04637104"/>
                    <path d="M71.3583225,10.6128869 C71.0831176,10.4031855 70.7619006,10.2359457 70.3951055,10.1116018 C70.0279848,9.98714932 69.6415477,9.88550226 69.235143,9.80676923 C68.933785,9.75453394 68.6421937,9.68872398 68.3605862,9.61031674 C68.0786531,9.53158371 67.8296014,9.44025339 67.613431,9.33534842 C67.3970436,9.23055204 67.2265598,9.10935747 67.1021968,8.97143891 C66.9779422,8.83406335 66.9156521,8.66693213 66.9156521,8.47015385 C66.9156521,8.26045249 66.9713225,8.07377376 67.0826633,7.91000905 C67.1941126,7.74624434 67.3349706,7.6121267 67.5052373,7.50722172 C67.6753955,7.40242534 67.8686684,7.32369231 68.0847302,7.27113122 C68.3009006,7.21889593 68.514141,7.19272398 68.7234746,7.19272398 C68.7638438,7.19272398 68.8036704,7.19348416 68.8429544,7.19511312 C69.6368813,7.22334842 70.3380243,7.62852489 70.7663499,8.23666968 L71.9808976,7.41741176 C71.2865913,6.42602715 70.1404108,5.78421719 68.8429544,5.784 C68.3911886,5.784 67.9726298,5.84318552 67.5667677,5.96090498 C67.1607972,6.07873303 66.7945446,6.24933937 66.4670335,6.4719638 C66.1397394,6.69458824 65.8776653,6.97639819 65.681571,7.31706787 C65.4852596,7.65806335 65.3870497,8.05107692 65.3870497,8.49654299 C65.3870497,8.96828959 65.4751673,9.35467873 65.6522708,9.6560362 C65.8291572,9.95761086 66.0647525,10.2032579 66.3595994,10.393086 C66.6541207,10.5832398 66.9980183,10.7372308 67.3909665,10.855276 C67.7839148,10.9731041 68.1963966,11.0779005 68.6287373,11.1695566 C68.877572,11.2221176 69.119787,11.2809774 69.3554909,11.3464615 C69.5911947,11.4119457 69.8007454,11.5007783 69.984143,11.6119819 C70.1675406,11.7234027 70.3151268,11.8578462 70.4264675,12.0149864 C70.5375913,12.1721267 70.5932617,12.3752036 70.5932617,12.6242172 C70.5932617,12.8730136 70.5344442,13.0858643 70.4167008,13.2628778 C70.2989574,13.44 70.1422556,13.5873665 69.9458357,13.7051946 C69.7495243,13.8232398 69.5304239,13.9082715 69.2889686,13.9606154 C69.0665041,14.0089412 68.8469696,14.0347873 68.6302566,14.0388054 C67.638716,14.0377195 66.7728408,13.5649955 66.2413134,12.8373937 L65.0107049,13.7944615 C65.8824402,14.8059367 67.1777262,15.4495928 68.6204899,15.4521991 C69.0657444,15.4432941 69.4918996,15.3909502 69.9118692,15.2908235 C70.3499615,15.1860271 70.7447546,15.0187873 71.0917992,14.7896471 C71.4385183,14.5603982 71.7180639,14.26219 71.9276146,13.8953484 C72.1371653,13.5285068 72.242429,13.0827149 72.242429,12.5585158 C72.242429,12.1000181 72.1642951,11.7133032 72.0070507,11.3988054 C71.8496978,11.0845249 71.6336359,10.8225882 71.3583225,10.6128869" id="Fill-5" fill="#DC3E2A"/>
                    <path d="M79.9185396,11.3988054 C79.7611866,11.0845249 79.5450162,10.8225882 79.2698114,10.6128869 C78.994498,10.4031855 78.6733895,10.2359457 78.3064858,10.1116018 C77.9393651,9.98693213 77.5530365,9.88550226 77.1466318,9.80676923 C76.8452738,9.75420814 76.553574,9.68872398 76.2719665,9.61031674 C75.990142,9.53158371 75.7413073,9.4400362 75.5251369,9.33513122 C75.3087495,9.23033484 75.1382657,9.10935747 75.0136856,8.97143891 C74.8893225,8.83384615 74.827141,8.66693213 74.827141,8.47015385 C74.827141,8.26045249 74.8828114,8.07377376 74.9941521,7.91000905 C75.1054929,7.74624434 75.2464594,7.6119095 75.4166176,7.50700452 C75.5868844,7.40220814 75.7800487,7.32369231 75.9962191,7.27113122 C76.2123895,7.21889593 76.4256298,7.19250679 76.6351805,7.19250679 C76.6755497,7.19250679 76.7153763,7.19348416 76.7547688,7.19511312 C77.5482617,7.22334842 78.2495132,7.62852489 78.6778387,8.23645249 L78.6789239,8.23254299 L79.8926034,7.41752036 L79.8876116,7.41382805 L79.8926034,7.41089593 C79.1979716,6.42602715 78.0517911,5.784 76.7547688,5.784 C76.7481491,5.784 76.7415294,5.784 76.7349097,5.784 C76.3028945,5.784 75.8841187,5.84318552 75.4781481,5.96101357 C75.072286,6.07873303 74.7059249,6.24912217 74.3787394,6.4719638 C74.0512282,6.69469683 73.7893712,6.976181 73.5930598,7.31717647 C73.39664,7.65784615 73.2985385,8.05107692 73.2985385,8.49632579 C73.2985385,8.96828959 73.3866562,9.35467873 73.5637596,9.6560362 C73.7405375,9.95761086 73.9762414,10.2032579 74.2709797,10.393086 C74.565501,10.5832398 74.9093986,10.7372308 75.3024554,10.8550588 C75.6954037,10.9731041 76.1078854,11.0779005 76.5401176,11.1695566 C76.7890609,11.2221176 77.0312759,11.281086 77.2671968,11.3465701 C77.5025751,11.4120543 77.7122343,11.5005611 77.8956318,11.6119819 C78.0792465,11.7234027 78.2265071,11.8578462 78.3379564,12.0149864 C78.4489716,12.1721267 78.5049675,12.3752036 78.5049675,12.624 C78.5049675,12.8730136 78.4458245,13.0858643 78.3281897,13.2628778 C78.2104462,13.4397828 78.0536359,13.5874751 77.8573245,13.7051946 C77.6610132,13.8230226 77.4422383,13.9082715 77.2004574,13.9606154 C76.9779929,14.0089412 76.7586755,14.0347873 76.5417454,14.0384796 L76.5414199,14.0364163 C76.536211,14.0364163 76.5308935,14.0364163 76.5255761,14.0364163 L76.5240568,14.0382624 L76.5235142,14.0377195 C75.5504219,14.0377195 74.6845467,13.5649955 74.1528022,12.8373937 L72.9221937,13.7942443 C73.793929,14.8060452 75.0891065,15.4495928 76.5319787,15.4523077 L76.5319787,15.4475294 C76.9772333,15.4432941 77.403714,15.3909502 77.8232495,15.2909321 C78.2613418,15.18581 78.6561349,15.0188959 79.003288,14.7893213 C79.3500071,14.5603982 79.6295527,14.26219 79.8391034,13.8953484 C80.0485456,13.5285068 80.1539178,13.0827149 80.1539178,12.5585158 C80.1539178,12.0998009 80.075784,11.7134118 79.9185396,11.3988054" id="Fill-6" fill="#DC3E2A"/>
                    <path d="M51.8154128,6.02334842 L50.1886004,6.02334842 L50.1886004,10.383095 C50.1886004,10.4528145 50.1859959,10.5249231 50.1859959,10.5955113 C50.1859959,10.5968145 50.1886004,15.18581 50.1886004,15.18581 L51.8154128,15.18581 L51.8154128,10.600724 C51.8174746,8.82624434 53.2502546,7.38982805 55.0153205,7.38765611 L55.0153205,5.75446154 C53.7952383,5.75554751 52.6749939,6.21426244 51.8154128,6.96933937 L51.8154128,6.02334842" id="Fill-7" fill="#DC3E2A"/>
                    <polygon id="Fill-8" fill="#EA882D" points="13.0021937 15.1859186 14.6288976 15.1859186 14.6288976 2.4598371 13.0021937 2.4598371"/>
                    <path d="M4.02493712,10.4547692 L6.33813387,4.42034389 L8.65024544,10.4547692 L4.02493712,10.4547692 Z M7.17525152,2.4520181 L5.49938844,2.4520181 L0.617540568,15.1857014 L2.21136308,15.1857014 L3.38391379,12.128905 L9.29126876,12.128905 L10.464145,15.1857014 L12.057642,15.1857014 L7.17525152,2.4520181 L7.17525152,2.4520181 Z" id="Fill-9" fill="#EA882D"/>
                    <polygon id="Fill-10" fill="#EA882D" points="16.9233205 15.1859186 18.5501329 15.1859186 18.5501329 6.10023529 16.9233205 6.10023529"/>
                    <path d="M17.7368895,0.705556561 C17.6978225,0.705556561 17.6664604,0.737266968 17.6664604,0.776579186 C17.6664604,2.08865158 16.6060101,3.15638009 15.3028022,3.15638009 C15.2637353,3.15638009 15.2320477,3.1880905 15.2320477,3.22740271 C15.2320477,3.26649774 15.2637353,3.29853394 15.3028022,3.29853394 C16.6060101,3.29853394 17.6664604,4.36593665 17.6664604,5.67800905 C17.6664604,5.71742986 17.6978225,5.74903167 17.7368895,5.74903167 L17.7371065,5.74903167 C17.7759564,5.74903167 17.807644,5.71764706 17.807644,5.67833484 C17.8120933,4.37071493 18.8722181,3.30689593 20.1709767,3.30689593 C20.2100436,3.30689593 20.2416227,3.27496833 20.2416227,3.2358733 C20.2416227,3.19656109 20.2100436,3.16452489 20.1709767,3.16452489 C18.8677688,3.16452489 17.807644,2.09712217 17.807644,0.783420814 L17.807644,0.77679638 C17.8078611,0.758117647 17.8002647,0.739873303 17.7870254,0.72640724 C17.773786,0.713158371 17.7556633,0.705556561 17.7368895,0.705556561" id="Fill-11" fill="#EA882D"/>
                    <polyline id="Fill-12" fill="#DC3E2A" points="80.5415487 6.0520181 80.35164 6.0520181 80.35164 5.05238009 80.0099128 5.05238009 80.0099128 4.88937557 80.8832759 4.88937557 80.8832759 5.05238009 80.5415487 5.05238009 80.5415487 6.0520181"/>
                    <path d="M81.5634746,6.0520181 L81.2265223,5.08094118 L81.2202282,5.08094118 C81.2292353,5.22515837 81.2336846,5.36036199 81.2336846,5.48655204 L81.2336846,6.0520181 L81.0612475,6.0520181 L81.0612475,4.88937557 L81.329073,4.88937557 L81.6517008,5.81419005 L81.6564757,5.81419005 L81.9886531,4.88937557 L82.2572383,4.88937557 L82.2572383,6.0520181 L82.0744919,6.0520181 L82.0744919,5.47699548 C82.0744919,5.41922172 82.0759026,5.3439638 82.0788327,5.25111312 C82.0817627,5.15837104 82.0842586,5.10222624 82.086429,5.08257014 L82.0800264,5.08257014 L81.7311369,6.0520181 L81.5634746,6.0520181" id="Fill-13" fill="#DC3E2A"/>
                </g>
            </g>
        </g>
    </g>
</svg>