<svg xmlns="http://www.w3.org/2000/svg">
    <g id="Page-1" stroke="none" stroke-width="1" fill="none" fill-rule="evenodd">
        <g id="search_tags" transform="translate(-100.000000, -80.000000)">
            <g id="Group-3" transform="translate(100.000000, 80.000000)">
                <circle id="Oval-3-Copy-9" stroke="#979797" transform="translate(12.000000, 12.000000) scale(-1, 1) translate(-12.000000, -12.000000) " cx="12" cy="12" r="11.5"/>
                <path d="M7.17103936,12.4759188 L10.8071982,16.7614843 C11.0413118,17.0539742 11.504039,17.0800209 11.775539,16.8254345 C12.0469935,16.5708719 12.0744026,16.0851983 11.8227663,15.8091364 L9.19506194,12.7140057 L16.3182046,12.7140057 C16.69475,12.7140057 17,12.3942073 17,11.9997448 C17,11.6052585 16.69475,11.2854958 16.3182046,11.2854958 L9.19506194,11.2854958 L11.8227663,8.19036506 C12.0744026,7.91430321 12.0403572,7.42951051 11.7688799,7.17492411 C11.4974027,6.92036151 11.0413118,6.94555111 10.8071982,7.23801716 L7.17103936,11.5235708 C6.93363028,11.8700588 6.95253937,12.1811195 7.17103936,12.4759188 Z" id="Shape-Copy-6" fill="#979797" fill-rule="nonzero"/>
            </g>
        </g>
    </g>
</svg>